<svg xmlns="http://www.w3.org/2000/svg" viewBox="0 0 200 35" enable-background="new 0 0 200 35"><path fill="#00B2E2" d="M35.5 1.4L33.1 0l-9.5 5.4-.1 16.8c0 .7-.1 1.4-.2 2.1-.1.7-.4 1.3-.6 2-.1.2-.1.3-.2.5-.3 0-.6-.1-.8-.1-.6-.1-1.2-.3-1.8-.5-.6-.2-1.1-.5-1.6-.9-.5-.3-1-.7-1.4-1.1-.4-.4-.8-.9-1.1-1.4-.3-.5-.6-1-.9-1.6-.2-.6-.4-1.2-.5-1.8-.1-.6-.2-1.2-.2-1.9V1.4L11.9 0 0 6.7v15.4C0 29.2 5.8 35 12.9 35c2.4 0 4.6-.6 6.5-1.7l9.6-5.4c3.8-1.9 6.4-5.8 6.4-10.3l.1-16.2zM17.1 31.9c-.6.3-1.3.5-2 .6-.7.1-1.4.2-2.1.2-.7 0-1.4-.1-2.1-.2-.7-.1-1.3-.3-2-.6-.6-.3-1.2-.6-1.8-1-.6-.4-1.1-.8-1.6-1.3s-.9-1-1.3-1.6c-.4-.6-.7-1.2-1-1.8-.3-.6-.5-1.3-.6-2-.1-.7-.2-1.4-.2-2.1V8l9.5-5.4v14.8c0 5.6 4 10.3 9.3 11.4-.2.2-.4.5-.7.7-.5.5-1 .9-1.6 1.3-.6.5-1.2.8-1.8 1.1zm15.7-12.5c-.1.6-.3 1.2-.6 1.7-.2.6-.5 1.1-.9 1.6-.3.5-.7 1-1.2 1.4-.4.4-.9.8-1.4 1.1-.5.3-1 .6-1.6.9-.6.2-1.2.4-1.8.5-.1 0-.2 0-.4.1.5-1.4.8-2.9.8-4.5V6.8l7.1-4v14.8c.2.6.2 1.2 0 1.8z"/><g fill="#2E3D49"><path d="M65.8 19.4c0 2.9-2.5 5.3-5.8 5.3s-5.8-2.4-5.8-5.3V9h-1.7v10.4c0 3.8 2.9 6.8 7.5 6.8s7.5-3 7.5-6.8V9h-1.7v10.4zM84.6 9h-5.5v17h5.5c5.1 0 8.6-3.1 8.6-8.5S89.8 9 84.6 9zm-.1 15.5h-3.7v-14h3.7c4.2 0 7 2.5 7 7s-2.8 7-7 7zM133.9 24.7c-4.1 0-6.9-3.3-6.9-7.3s2.9-7.1 6.9-7.1c3.2 0 5.2 1.9 5.2 1.9l.9-1.2s-2.1-2.2-6.2-2.2c-4.9 0-8.6 3.7-8.6 8.6 0 4.9 3.6 8.9 8.7 8.9 4.2 0 6.5-2.6 6.5-2.6l-1-1.2c0-.1-2.1 2.2-5.5 2.2zM151.5 9h1.7v16.9h-1.7zM163.6 10.5h6.2V26h1.7V10.5h6.1V9h-14zM198.1 9l-5.5 8.2h-.1L187 9h-1.9l6.6 9.7V26h1.7v-7.3L200 9zM108.2 9l-7 16.9h1.8l1.8-4.5 7.8-1.6 2.5 6.1h1.8L110 9h-1.8zm.9 2.3l2.9 7-6.3 1.3 3.4-8.3z"/></g></svg>