<?xml version="1.0" encoding="utf-8"?>
<!-- Generator: Adobe Illustrator 19.2.1, SVG Export Plug-In . SVG Version: 6.00 Build 0)  -->
<svg version="1.1" id="Layer_1" xmlns="http://www.w3.org/2000/svg" xmlns:xlink="http://www.w3.org/1999/xlink" x="0px" y="0px"
	 viewBox="0 0 200 35" style="enable-background:new 0 0 200 35;" xml:space="preserve">
<style type="text/css">
	.st0{fill:#01B3E3;}
	.st1{fill:#2D3C49;}
	.st2{fill:#7D97AD;}
</style>
<g>
	<path id="mark_3_" class="st0" d="M11.818,0L0,6.699l0.001,15.43l0,0C-0.021,29.216,5.775,34.978,12.946,35
		c2.371,0.007,4.596-0.614,6.512-1.706v0l9.573-5.436c3.776-1.936,6.362-5.83,6.376-10.326l0.001-16.115h0l0,0l-2.343-1.354
		l-9.599,5.36l0.001,0.001l0,0L23.464,22.2c-0.002,0.714-0.034,1.236-0.222,2.118c-0.32,1.345-0.77,2.291-0.849,2.451
		c-0.732-0.05-2.278-0.469-3.512-1.196c-0.616-0.354-1.349-0.879-2.01-1.497c-0.427-0.424-0.814-0.891-1.15-1.386
		c-0.339-0.5-0.631-1.034-0.865-1.587c-0.239-0.563-0.422-1.152-0.544-1.75c-0.125-0.615-0.153-1.249-0.152-1.884h0l0.008-16.114
		L11.818,0z M17.257,31.841c-0.641,0.266-1.311,0.469-1.993,0.605c-0.7,0.139-1.346,0.209-2.068,0.207
		c-0.722-0.002-1.443-0.076-2.143-0.22c-0.681-0.14-1.35-0.347-1.989-0.617c-0.628-0.265-1.234-0.592-1.801-0.973
		c-1.462-1.015-2.216-1.894-2.864-2.847c-0.382-0.562-0.709-1.163-0.974-1.785c-0.269-0.633-0.475-1.296-0.612-1.969
		c-0.141-0.692-0.167-1.405-0.165-2.119L2.647,8.039l8.862-5.345l-0.011,14.768h0c-0.017,5.612,4.164,10.296,9.503,11.428
		c-0.209,0.247-0.36,0.484-0.591,0.711c-0.483,0.474-1.004,0.918-1.568,1.292C18.273,31.27,17.886,31.58,17.257,31.841z
		 M32.607,19.436c-0.126,0.598-0.312,1.185-0.555,1.747c-0.644,1.412-1.692,2.612-2.568,3.385c-1.788,1.625-4.016,2.127-4.273,2.128
		c0.536-1.4,0.897-2.9,0.903-4.485l0,0L26.113,6.777h0l6.647-4.02l0.003,14.768C32.761,18.16,32.736,18.821,32.607,19.436z"/>
	<g id="wordmark_2_">
		<g>
			<path class="st1" d="M65.507,10.678c0,2.913-2.459,5.322-5.784,5.322c-3.325,0-5.722-2.409-5.722-5.322V0.253h-1.768v10.45
				c0,3.755,2.928,7.05,7.49,7.05c4.562,0,7.56-3.295,7.56-7.05V0.253h-1.775V10.678z M84.36,0.253h-5.566l0.002,17.063l5.755-0.001
				c5.143,0,8.413-3.153,8.413-8.545C92.963,3.426,89.502,0.253,84.36,0.253z M84.189,15.581l-3.624-0.015V2.003l3.624-0.005
				c4.191,0,7.019,2.618,7.019,6.772C91.208,13.132,88.405,15.581,84.189,15.581z M133.648,15.994c-4.069,0-7.004-3.325-7.004-7.37
				c0-3.995,2.934-7.077,6.955-7.077c3.217,0,5.215,1.878,5.215,1.878l0.902-1.227c0,0-2.071-2.198-6.166-2.198
				c-4.899,0-8.661,3.738-8.661,8.648c0,4.935,3.665,9.084,8.735,9.084c4.216,0,6.555-2.849,6.555-2.849l-0.975-1.18
				C139.204,13.704,137.109,15.994,133.648,15.994z M151.399,17.315h1.771V0.253h-1.771V17.315z M163.352,2.003h6.198l-0.001,15.312
				h1.772V2.003h6.198v-1.75h-14.167V2.003z M198.099,0.253l-5.493,7.861h-0.049l-5.547-7.861h-1.925l6.601,9.696l0,7.367h1.771
				V9.949L200,0.253H198.099z M107.947,0.253l-6.983,17.049h1.847l1.848-4.563l7.772-1.574l2.498,6.138h1.847l-6.983-17.049H107.947
				z M105.436,10.856l3.41-8.265h0.048l2.88,6.981L105.436,10.856z"/>
		</g>
	</g>
	<g>
		<path class="st2" d="M53.462,34.897h-1.23v-7.496h4.28v1.036h-3.051v2.343h2.859v1.041h-2.859V34.897z"/>
		<path class="st2" d="M66.746,31.139c0,1.22-0.309,2.169-0.926,2.845C65.203,34.662,64.328,35,63.197,35
			c-1.145,0-2.024-0.336-2.638-1.007s-0.921-1.626-0.921-2.863c0-1.237,0.309-2.187,0.926-2.851s1.498-0.995,2.643-0.995
			c1.128,0,1.999,0.337,2.615,1.01S66.746,29.916,66.746,31.139z M60.956,31.139c0,0.923,0.188,1.623,0.565,2.099
			c0.377,0.477,0.936,0.715,1.676,0.715c0.737,0,1.293-0.236,1.668-0.708c0.375-0.472,0.563-1.174,0.563-2.107
			c0-0.919-0.186-1.617-0.558-2.092c-0.372-0.475-0.926-0.713-1.663-0.713c-0.744,0-1.305,0.238-1.684,0.713
			C61.146,29.523,60.956,30.22,60.956,31.139z"/>
		<path class="st2" d="M71.74,31.903v2.994H70.5v-7.496h2.143c0.979,0,1.703,0.181,2.174,0.543s0.706,0.909,0.706,1.641
			c0,0.933-0.491,1.598-1.473,1.994l2.143,3.317H74.78l-1.816-2.994H71.74z M71.74,30.888h0.861c0.578,0,0.996-0.106,1.255-0.318
			c0.259-0.212,0.389-0.526,0.389-0.943c0-0.424-0.14-0.728-0.42-0.913c-0.28-0.185-0.702-0.277-1.266-0.277h-0.82V30.888z"/>
		<path class="st2" d="M84.301,27.402h2.252c1.045,0,1.799,0.15,2.265,0.451c0.465,0.301,0.698,0.776,0.698,1.425
			c0,0.438-0.114,0.802-0.342,1.092c-0.228,0.291-0.557,0.473-0.986,0.549v0.051c0.533,0.099,0.924,0.295,1.175,0.587
			c0.251,0.292,0.376,0.688,0.376,1.187c0,0.673-0.238,1.201-0.713,1.582c-0.476,0.381-1.137,0.572-1.984,0.572h-2.739V27.402z
			 M85.541,30.499h1.193c0.519,0,0.898-0.081,1.136-0.244c0.239-0.162,0.358-0.438,0.358-0.828c0-0.352-0.129-0.607-0.387-0.764
			c-0.258-0.157-0.667-0.236-1.227-0.236h-1.074V30.499z M85.541,31.493v2.374h1.318c0.519,0,0.91-0.098,1.175-0.295
			c0.265-0.197,0.397-0.507,0.397-0.931c0-0.39-0.135-0.678-0.405-0.866c-0.27-0.188-0.68-0.282-1.23-0.282H85.541z"/>
		<path class="st2" d="M99.386,27.402v4.85c0,0.554-0.12,1.038-0.361,1.453c-0.24,0.415-0.588,0.735-1.043,0.959
			S96.984,35,96.351,35c-0.941,0-1.672-0.246-2.195-0.738c-0.522-0.492-0.783-1.169-0.783-2.03v-4.83h1.245v4.742
			c0,0.619,0.145,1.075,0.436,1.369s0.737,0.441,1.339,0.441c1.169,0,1.754-0.607,1.754-1.82v-4.732H99.386z"/>
		<path class="st2" d="M107.825,32.862c0,0.667-0.244,1.189-0.732,1.569c-0.488,0.379-1.16,0.569-2.018,0.569
			c-0.858,0-1.56-0.132-2.106-0.395v-1.159c0.346,0.161,0.713,0.287,1.102,0.379c0.389,0.092,0.751,0.138,1.087,0.138
			c0.491,0,0.853-0.092,1.087-0.277s0.35-0.432,0.35-0.743c0-0.28-0.107-0.518-0.322-0.713s-0.657-0.426-1.328-0.692
			c-0.692-0.277-1.179-0.593-1.463-0.948c-0.284-0.355-0.425-0.783-0.425-1.282c0-0.625,0.225-1.118,0.674-1.477
			c0.45-0.359,1.053-0.538,1.811-0.538c0.726,0,1.449,0.157,2.169,0.472l-0.394,1c-0.674-0.28-1.276-0.42-1.805-0.42
			c-0.401,0-0.706,0.086-0.913,0.259s-0.311,0.401-0.311,0.684c0,0.195,0.042,0.361,0.125,0.5s0.22,0.269,0.41,0.392
			c0.19,0.123,0.533,0.285,1.027,0.487c0.557,0.229,0.965,0.443,1.224,0.641s0.45,0.422,0.571,0.672
			C107.764,32.23,107.825,32.524,107.825,32.862z"/>
		<path class="st2" d="M111.418,34.897v-7.496h1.24v7.496H111.418z"/>
		<path class="st2" d="M123.105,34.897h-1.52l-3.73-5.973h-0.042l0.026,0.333c0.048,0.636,0.073,1.217,0.073,1.743v3.896h-1.126
			v-7.496h1.505l3.72,5.942h0.031c-0.007-0.079-0.021-0.365-0.042-0.859c-0.021-0.494-0.031-0.879-0.031-1.156v-3.927h1.136V34.897z
			"/>
		<path class="st2" d="M131.523,34.897h-4.29v-7.496h4.29v1.036h-3.051v2.041h2.859v1.025h-2.859v2.353h3.051V34.897z"/>
		<path class="st2" d="M139.66,32.862c0,0.667-0.244,1.189-0.732,1.569S137.769,35,136.911,35c-0.858,0-1.56-0.132-2.106-0.395
			v-1.159c0.346,0.161,0.713,0.287,1.102,0.379s0.751,0.138,1.087,0.138c0.491,0,0.853-0.092,1.087-0.277s0.35-0.432,0.35-0.743
			c0-0.28-0.107-0.518-0.322-0.713c-0.214-0.195-0.657-0.426-1.328-0.692c-0.692-0.277-1.179-0.593-1.463-0.948
			s-0.425-0.783-0.425-1.282c0-0.625,0.225-1.118,0.674-1.477s1.053-0.538,1.811-0.538c0.726,0,1.449,0.157,2.169,0.472l-0.394,1
			c-0.674-0.28-1.276-0.42-1.805-0.42c-0.401,0-0.706,0.086-0.913,0.259s-0.311,0.401-0.311,0.684c0,0.195,0.042,0.361,0.125,0.5
			s0.22,0.269,0.41,0.392c0.19,0.123,0.533,0.285,1.027,0.487c0.557,0.229,0.965,0.443,1.224,0.641s0.45,0.422,0.571,0.672
			C139.6,32.23,139.66,32.524,139.66,32.862z"/>
		<path class="st2" d="M147.627,32.862c0,0.667-0.244,1.189-0.732,1.569S145.735,35,144.877,35c-0.858,0-1.56-0.132-2.106-0.395
			v-1.159c0.346,0.161,0.713,0.287,1.102,0.379s0.751,0.138,1.087,0.138c0.491,0,0.853-0.092,1.087-0.277s0.35-0.432,0.35-0.743
			c0-0.28-0.107-0.518-0.322-0.713c-0.214-0.195-0.657-0.426-1.328-0.692c-0.692-0.277-1.179-0.593-1.463-0.948
			s-0.425-0.783-0.425-1.282c0-0.625,0.225-1.118,0.674-1.477s1.053-0.538,1.811-0.538c0.726,0,1.449,0.157,2.169,0.472l-0.394,1
			c-0.674-0.28-1.276-0.42-1.805-0.42c-0.401,0-0.706,0.086-0.913,0.259s-0.311,0.401-0.311,0.684c0,0.195,0.042,0.361,0.125,0.5
			s0.22,0.269,0.41,0.392c0.19,0.123,0.533,0.285,1.027,0.487c0.557,0.229,0.965,0.443,1.224,0.641s0.45,0.422,0.571,0.672
			C147.567,32.23,147.627,32.524,147.627,32.862z"/>
	</g>
</g>
</svg>
